<?xml version="1.0" encoding="UTF-8"?>
<svg width="188px" height="72px" viewBox="0 0 188 72" version="1.1" xmlns="http://www.w3.org/2000/svg" xmlns:xlink="http://www.w3.org/1999/xlink">
    <!-- Generator: Sketch 63.1 (92452) - https://sketch.com -->
    <title>Asset 1 (1)</title>
    <desc>Created with Sketch.</desc>
    <g id="Symbols" stroke="none" stroke-width="1" fill="none" fill-rule="evenodd">
        <g id="Header/header-login" transform="translate(-636.000000, -7.000000)">
            <g id="Asset-1-(1)">
                <g transform="translate(636.000000, 7.000000)">
                    <path d="M69.3049492,71.4326143 L72.9900741,29.070233 C77.1979844,23.3779465 84.8706296,16.6862123 92.9071745,9.89301122 L108.211462,16.8333391 L92.353637,6.0880069 C83.1846915,12.7760472 74.6111297,20.228947 66.7268994,28.3650388 L69.3049492,71.4326143 Z" id="Path" fill="#ED1C24"></path>
                    <path d="M96.1822716,0 C97.9655819,0 99.4112405,1.43098911 99.4112405,3.19620362 C99.4112405,4.96141814 97.9655819,6.39240725 96.1822716,6.39240725 C94.3989613,6.39240725 92.9533027,4.96141814 92.9533027,3.19620362 C92.9533027,1.43098911 94.3989613,0 96.1822716,0" id="Path" fill="#ED1C24"></path>
                    <path d="M110.036086,18.0661605 L117.503717,29.115893 C117.76511,29.5014668 120.066391,62.1686972 119.625611,71.4326143 C121.22472,55.6798965 121.450235,42.9458154 120.871071,27.335151 L110.036086,18.0661605 Z" id="Path" fill="#00A651"></path>
                    <path d="M119.599984,18.4314352 C120.52501,18.4293879 121.360106,18.9793757 121.715536,19.8247277 C122.070966,20.6700796 121.876661,21.6441421 121.223302,22.2923248 C120.569943,22.9405074 119.586333,23.1350269 118.73152,22.7851019 C117.876706,22.4351768 117.319205,21.6097918 117.319205,20.6941501 C117.319205,19.4464689 118.339516,18.4342384 119.599984,18.4314352" id="Path" fill="#00A651"></path>
                    <path d="M134.089342,64.7256601 L134.05859,64.7763934 L133.920205,65.0554271 C133.811905,65.1888722 133.673127,65.294942 133.515303,65.3649008 L133.294913,65.4765142 L133.294913,65.4765142 L133.464049,65.5069543 C133.535674,65.5106485 133.606415,65.5243116 133.674189,65.547541 L133.925331,65.547541 L134.196974,65.547541 L134.196974,65.4410009 L134.166222,65.248214 C134.173401,65.2130561 134.173401,65.1768318 134.166222,65.1416739 L134.125219,64.9590336 C134.125219,64.9083003 134.125219,64.7966868 134.079091,64.69522 M154.785495,66.0700949 C154.746201,65.9482726 154.687361,65.8335015 154.611233,65.7301812 C154.560477,65.7880373 154.505671,65.8422869 154.447222,65.892528 L154.242208,66.0700949 L154.785495,66.0700949 Z M162.950174,64.7256601 L162.919422,64.7763934 L162.781037,65.0554271 C162.671857,65.1900929 162.531103,65.2963284 162.371009,65.3649008 L162.15062,65.4765142 L162.176246,65.4765142 L162.345383,65.5069543 C162.416951,65.5110968 162.487631,65.524748 162.555522,65.547541 L162.806664,65.547541 L163.078307,65.547541 L163.078307,65.4410009 L163.052681,65.248214 C163.057294,65.2128474 163.057294,65.1770405 163.052681,65.1416739 L163.011678,64.9590336 C162.986051,64.9387403 162.986051,64.8271268 162.955299,64.7256601 L162.950174,64.7256601 Z M55.0154803,49.8404832 C54.672082,50.0484901 54.5490737,51.0022778 54.5336976,51.3218982 C54.4978202,51.9814323 54.3440598,53.2599137 54.7284608,53.8585677 C55.041107,54.3253149 55.9380429,54.5434685 56.4762043,54.5181018 C57.1988783,54.4825884 57.4500204,53.7773943 57.5012738,53.1635203 C57.5363451,52.0938907 57.4659657,51.0234246 57.2911346,49.9673167 C57.2911346,49.8303365 56.8759814,49.8201898 56.7785998,49.8201898 L55.0154803,49.8404832 Z M47.9988795,49.95717 C47.7836149,50.286937 47.5939771,50.8450043 47.8553698,51.184918 C48.2346455,51.6922519 49.2955925,51.4943917 49.8081272,51.3269715 C50.320662,51.1595513 50.5154252,50.8906644 50.320662,50.4137705 C50.2232804,50.1550302 49.9106342,49.7593097 49.597988,49.7593097 C49.1572694,49.7583579 48.7170555,49.7888772 48.2807737,49.8506299 C48.1844963,49.8798305 48.090318,49.9154246 47.9988795,49.95717 L47.9988795,49.95717 Z M36.2105802,54.5840552 L36.4412209,54.416635 L36.4412209,52.2553926 L36.4412209,52.2553926 C36.0824466,52.3314927 34.0579343,52.8134599 33.9349259,53.0924935 C33.7555388,53.488214 33.5710263,54.4064884 34.2116947,54.5028818 C34.8745214,54.5852565 35.5431642,54.6124097 36.2105802,54.5840552 Z M12.8799983,54.5840552 L13.110639,54.416635 L13.110639,52.2553926 L13.110639,52.2553926 C12.7518646,52.3314927 10.7324777,52.8134599 10.6094694,53.0924935 C10.4300822,53.488214 10.2455697,54.4064884 10.8811128,54.5028818 C11.5439574,54.585043 12.2125821,54.6121954 12.8799983,54.5840552 L12.8799983,54.5840552 Z M1.26083549,47.3596204 L1.26083549,54.715962 L4.336044,54.715962 C5.15730141,54.4991939 5.79269535,53.8546698 5.99153125,53.0366868 L5.99153125,48.7497153 C5.99153125,47.8618809 4.92033362,47.4458671 4.19253427,47.3596204 L1.26083549,47.3596204 Z M7.61116841,65.4968076 C7.61269063,65.1498132 7.54836208,64.8056197 7.42150321,64.4821398 C7.32772138,64.2511802 7.18632946,64.0421084 7.00635006,63.8682657 C6.85935873,63.7318218 6.68461358,63.6280386 6.49381531,63.5638654 C6.34243754,63.5098691 6.18315906,63.4807358 6.02228334,63.4775997 C5.78941159,63.4763992 5.5600776,63.534024 5.35598816,63.6450388 C5.19495451,63.7324571 5.05229872,63.8495566 4.93570966,63.9900259 C4.82206,64.1284744 4.72887143,64.2822126 4.6589409,64.4466264 C4.58283082,64.6215224 4.53110335,64.8058516 4.50518047,64.994547 C4.47453802,65.1960635 4.45911923,65.3995613 4.45905234,65.6033477 C4.45644341,65.8573587 4.48222692,66.110876 4.53593256,66.3592752 C4.57925636,66.5731603 4.65713597,66.7787318 4.7665732,66.9680759 C4.85783199,67.1343073 4.97748268,67.2836403 5.12022217,67.4094564 C5.24840835,67.5211121 5.39602416,67.6087828 5.55587671,67.6681967 C5.70927765,67.7282289 5.87270521,67.759206 6.03765938,67.7595168 C6.26054121,67.7561662 6.47969207,67.7023683 6.67832782,67.6022433 C6.907126,67.4857604 7.10008066,67.3105341 7.2369907,67.0949094 C7.3234566,66.9693618 7.39241646,66.8328416 7.4420046,66.6890423 C7.49200435,66.5504943 7.52973247,66.4079032 7.55476225,66.2628818 C7.58109543,66.130852 7.59482349,65.996663 7.59576503,65.862088 C7.61116841,65.7251079 7.61116841,65.6084211 7.61116841,65.4968076 Z M10.2660711,63.467472 L10.2660711,65.4207075 L10.7786058,65.4207075 C11.0637821,65.409452 11.3373976,65.3061056 11.5576587,65.1264538 C11.75322,64.9469255 11.8567497,64.6897959 11.8395528,64.426333 C11.8522779,64.2281001 11.8059432,64.0305297 11.7062937,63.8581191 C11.6278487,63.737071 11.5181373,63.6389824 11.3885222,63.5740121 C11.2664793,63.5140201 11.1345422,63.4762153 10.9989958,63.4623986 C10.8862381,63.4623986 10.7734805,63.4623986 10.6607228,63.4623986 C10.5719571,63.4573361 10.4829705,63.4573361 10.3942048,63.4623986 L10.2660711,63.467472 Z M20.5167661,65.6591544 L21.5418356,65.6591544 L21.0293009,64.2893529 L20.5167661,65.6591544 Z M48.0706344,65.6591544 L49.0957039,65.6591544 L48.5831692,64.2944262 L48.0706344,65.6591544 Z M52.4835586,63.467472 L52.4835586,65.4207075 L52.9960934,65.4207075 C53.2812696,65.409452 53.5548851,65.3061056 53.7751462,65.1264538 C53.9744958,64.9491869 54.08035,64.6909789 54.0621657,64.426333 C54.0731282,64.2282479 54.026908,64.0311657 53.9289066,63.8581191 C53.8472441,63.7379411 53.7361566,63.6401987 53.6060097,63.5740121 C53.4839668,63.5140201 53.3520298,63.4762153 53.2164833,63.4623986 C53.1037257,63.4623986 52.990968,63.4623986 52.8782104,63.4623986 C52.7894446,63.4573361 52.7004581,63.4573361 52.6116923,63.4623986 L52.4835586,63.467472 Z M179.658807,55.5581363 C178.239085,55.5276963 176.706607,54.7362554 176.547721,53.188887 L176.547721,45.2237446 L177.905938,43.6560828 L177.905938,51.8596721 C177.732609,53.2648923 178.451981,54.6305362 179.715186,55.2943227 L180.268723,55.553063 L179.658807,55.5581363 Z M169.889894,57.2069715 C171.184251,56.8946675 172.345244,56.1841808 173.205994,55.1776359 C173.815911,54.3354616 173.718529,53.7773943 173.692902,52.7982399 L173.667275,50.1651769 L175.133125,48.8613287 L175.133125,53.8737877 C175.099509,54.352598 174.951985,54.8167541 174.702596,55.2283693 C173.677526,56.8974978 171.8119,57.5671786 169.910396,57.4454185 L169.059588,57.3946851 L169.889894,57.2069715 Z M164.559533,47.2835203 C164.703043,46.9638999 165.154073,46.2130457 165.584602,46.4007593 C166.015132,46.5884728 165.979254,47.3494737 165.886998,47.7046074 C165.729045,48.0491244 165.472426,48.3401841 165.148948,48.5417084 L164.949059,48.6786885 L164.949059,47.9836411 C164.964705,47.7629264 164.834042,47.5576297 164.626162,47.4763072 L164.508279,47.4255738 L164.559533,47.2835203 Z M164.211009,55.299396 C163.358561,55.3318703 162.542996,54.9537488 162.022486,54.2847282 C161.417695,53.472994 161.509951,52.88956 161.509951,51.9509922 L161.509951,45.0816911 L163.083433,43.7169629 L162.986051,52.7627265 C162.986051,53.6556342 163.734352,54.5231752 164.462151,54.9899223 C164.646812,54.6951757 164.772123,54.3678503 164.831176,54.0259879 L164.790174,50.1753236 L166.256023,48.8714754 L166.256023,52.0981191 C166.256023,53.1635203 166.420034,54.4217084 165.825494,55.3704228 C164.836302,56.9380846 162.82204,57.5671786 161.033294,57.4555651 L160.16711,57.4048318 L161.012792,57.2018982 C162.245471,56.8947383 163.358455,56.2326648 164.211009,55.299396 Z M138.896918,52.5750129 L158.204102,52.6003796 L158.245105,52.6561864 C158.32711,52.7830198 158.491121,52.9301467 158.650007,52.8743399 C158.9114,52.7830198 158.803768,52.367006 158.798642,52.1387058 C158.798642,51.5451251 158.798642,50.9464711 158.798642,50.3579638 L158.798642,50.3123037 L160.105606,48.790302 L160.105606,52.9605867 C160.049227,53.5693874 159.731456,54.685522 158.896024,54.4825884 L158.860146,54.4825884 L158.83452,54.4825884 C158.642901,54.2900434 158.421427,54.1290486 158.178475,54.0056946 C157.812539,53.9292366 157.440189,53.8867744 157.066275,53.8788611 C156.128336,53.8281277 155.067389,53.8788611 154.1192,53.8788611 L147.871401,53.8788611 C144.796193,53.8788611 141.720984,53.8788611 138.645776,53.8788611 L138.594522,53.8788611 L138.568896,53.8534944 C138.476546,53.7946896 138.376537,53.7486063 138.271625,53.7165142 C138.113708,53.7005865 137.966928,53.7988714 137.923102,53.9498878 C137.83893,54.2917484 137.544245,54.5426467 137.190177,54.5739085 C136.835134,54.5449174 136.520758,54.3355393 136.359871,54.0209146 C136.334993,53.9755646 136.292786,53.9419804 136.242694,53.9276776 C136.192603,53.9133749 136.13881,53.9195476 136.093353,53.9448145 L136.067726,53.9448145 L130.891125,53.8991544 L130.891125,52.666333 L136.708394,52.666333 L136.744272,52.7272131 C136.800651,52.8083865 136.94416,52.9808801 137.051793,52.9910267 C137.272183,53.0163934 137.379815,52.8540466 137.431068,52.666333 C137.489913,52.1210964 137.432288,51.5697047 137.261932,51.0479379 C136.749397,49.6984297 135.447559,49.657843 134.13547,49.7237964 L132.131459,49.6933563 C131.417457,49.4999534 130.914374,48.8682213 130.891125,48.1358412 C130.891125,47.7553408 131.009008,46.8979465 131.567671,46.9334599 L131.726557,46.9334599 L131.685554,47.0907334 C131.465164,47.8517343 131.757309,48.475755 132.649119,48.4402416 C133.674189,48.3996549 134.745386,48.3996549 135.785832,48.4402416 C136.350924,48.452378 136.899921,48.628815 137.364439,48.9475755 C138.594522,49.718723 138.896918,51.2407248 138.896918,52.5750129 Z M156.902264,55.6494564 C157.124735,55.4738317 157.336926,55.2858141 157.537807,55.0863158 C158.050342,54.5789819 158.526999,55.3754961 158.403991,56.0045902 C158.279114,56.4848002 157.967842,56.8968334 157.537807,57.1511648 L157.21491,57.333805 L157.348169,56.9938913 C157.501929,56.6184642 157.14828,56.0959103 156.892013,55.8422433 L156.784381,55.7357032 L156.902264,55.6494564 Z M155.421038,56.9938913 C155.574799,56.6184642 155.22115,56.0959103 154.964882,55.8422433 L154.85725,55.7357032 L154.975133,55.6494564 C155.196495,55.4725372 155.408617,55.2845806 155.610676,55.0863158 C156.123211,54.5789819 156.599868,55.3754961 156.47686,56.0045902 C156.351983,56.4848002 156.040712,56.8968334 155.610676,57.1511648 L155.29803,57.3287317 L155.421038,56.9938913 Z M132.931013,62.7115444 L132.905387,62.7115444 L132.808005,62.7927179 C132.759364,62.832228 132.713154,62.8745814 132.669621,62.9195513 L132.669621,63.0362381 L132.531236,63.0057981 C132.451767,62.9888896 132.37442,62.963369 132.300596,62.929698 L132.06483,62.8130112 L131.895693,62.7166178 C131.827401,62.6802784 131.763737,62.6359959 131.706055,62.584711 L131.613799,62.4933909 L132.085331,61.9860569 L132.331348,61.73239 L132.423604,61.8135634 C132.51586,61.8896635 132.654245,61.9708369 132.751626,62.0367903 L132.987392,62.1686972 C133.020079,62.1541827 133.048354,62.131443 133.069398,62.1027437 L133.453799,61.7526833 L134.437865,62.2904573 L134.171347,62.599931 L134.007336,62.7724245 C133.931267,62.8648634 133.841394,62.9452711 133.740818,63.0108714 L133.69469,63.0108714 L133.602434,62.9702847 C133.486055,62.9278379 133.372992,62.876967 133.264161,62.8180846 C133.192406,62.8383779 133.054022,62.7724245 132.946389,62.7115444 L132.931013,62.7115444 Z M140.716416,65.9534081 C140.636189,65.7692218 140.545496,65.5896768 140.444773,65.4156342 L140.280762,65.1467472 C140.239108,65.0842703 140.192854,65.0249202 140.142377,64.9691803 L140.075748,64.8930802 L140.306388,64.5176531 L140.736918,63.797239 L140.859926,63.9342192 C140.988557,64.0946089 141.105048,64.2641812 141.20845,64.4415531 C141.350478,64.6873277 141.460685,64.9498227 141.536472,65.2228473 L141.536472,65.3598274 L141.536472,65.5678343 L141.536472,65.6743745 L141.536472,65.9128214 C141.540792,65.9910343 141.526758,66.0691752 141.495469,66.1411217 L141.433965,66.5825022 C141.425317,66.7685139 141.392589,66.9526581 141.336583,67.1304228 L141.300706,67.2065229 L134.970902,67.2065229 C134.612127,67.2065229 134.458367,66.8412425 134.366111,66.5266954 C134.366111,66.4556687 134.340484,66.2933218 134.314857,66.161415 C134.253353,66.2578085 134.181598,66.4049353 134.155971,66.4505953 C134.06884,66.6332355 133.909955,66.9021225 133.679314,66.9021225 C133.41933,66.8669763 133.162352,66.8127106 132.910512,66.7397757 L132.37235,66.6230889 L132.213465,66.5926488 L131.962323,66.5926488 L131.962323,66.460742 C131.994869,66.1956518 132.063845,65.9362044 132.167337,65.6895945 C132.25193,65.4008718 132.396862,65.1329627 132.59274,64.9032269 C132.749295,64.7672634 132.921296,64.6497872 133.105275,64.5531665 L133.879203,64.081346 L133.848451,64.0103192 L133.786946,63.797239 L134.017587,63.4471786 L134.171347,63.183365 L134.504495,62.5542709 L134.668506,63.3710785 L134.750512,63.827679 L134.94015,65.1518205 C134.959756,65.3746712 134.999203,65.595373 135.058033,65.8113546 L135.124662,65.9178947 C135.155189,65.9231016 135.186391,65.9231016 135.216918,65.9178947 L140.716416,65.9534081 Z M147.379368,65.9077481 L147.502376,65.9584814 L147.743268,65.9939948 L148.055914,65.9939948 L148.486443,65.9939948 L148.660705,65.9483348 L148.660705,65.892528 C148.654596,65.7847536 148.666722,65.6767261 148.696582,65.5729077 C148.715951,65.5128718 148.741723,65.455048 148.773463,65.4004142 C148.872558,65.2668478 148.982245,65.1413083 149.101485,65.0249871 L149.860036,64.2944262 L149.567891,65.3598274 L149.506387,65.6337877 C149.48272,65.728531 149.46898,65.8254363 149.465384,65.9229681 L150.054799,65.9229681 L150.054799,65.816428 L150.013797,65.5881277 L149.983045,65.4054875 C149.983045,65.3040207 150.20856,65.0351337 150.275189,64.9539603 C150.354806,64.8494532 150.440367,64.749516 150.531457,64.6546333 L150.961986,64.2132528 L150.961986,65.7352545 C150.96566,65.9412947 150.946756,66.1471219 150.905607,66.3491286 L150.849228,66.5114754 L150.731345,66.7549957 L150.633964,66.9528559 L150.546833,67.2166695 L149.009229,67.2166695 L148.911847,67.0796894 L148.911847,67.0238827 L148.793964,67.1710095 L148.332683,67.2369629 L148.066165,67.2369629 L147.702265,67.2369629 C147.505107,67.2431427 147.307795,67.2312542 147.11285,67.2014495 C146.995446,67.1920663 146.884126,67.1458577 146.795078,67.0695427 L146.795078,67.0695427 L146.7387,66.9630026 C146.679765,67.0172201 146.616329,67.0664358 146.549062,67.1101294 L146.415803,67.1760828 L146.262042,67.2115962 L144.662934,67.2115962 C144.607034,67.2094287 144.55324,67.1899044 144.509173,67.1557895 L144.447669,67.1202761 C144.318259,67.5625551 144.109965,67.9783532 143.832628,68.3480242 C143.555189,68.8451064 143.061582,69.1876868 142.494912,69.2764452 C142.071558,69.2111659 141.661477,69.0792846 141.280204,68.8857981 L141.044438,68.779258 C140.965972,68.889478 140.88037,68.9945473 140.788171,69.093805 C140.71656,69.1908112 140.632088,69.2778387 140.537029,69.3525453 L140.4704,69.3982053 L140.296138,69.3068852 L139.978366,69.1343917 L139.691347,68.9618982 L139.558088,69.1039517 C139.490229,69.1600793 139.428398,69.2229831 139.373575,69.2916652 L139.317196,69.3728387 L139.22494,69.3423986 C139.062105,69.286236 138.905759,69.2131077 138.758533,69.124245 C138.671659,69.079688 138.58928,69.0270247 138.512517,68.9669715 L138.292127,68.7894047 L138.77391,68.2008973 L139.066054,67.9015703 L139.158311,68.0385505 C139.253893,68.1270693 139.358695,68.2052985 139.470957,68.2719241 C139.553518,68.3256588 139.641041,68.3715241 139.732349,68.4089042 L139.814355,68.3378775 L140.203881,67.942157 L140.429397,68.0791372 L140.501152,68.0436238 L140.54728,68.0436238 L141.126444,68.2617774 L141.336583,68.3328041 L141.510845,68.3328041 C141.688067,68.3349028 141.863411,68.2967184 142.02338,68.2211907 C142.2648,68.0979282 142.494642,67.9536127 142.710176,67.7899569 L142.869062,67.6631234 L143.053575,67.5007765 C143.158876,67.4126558 143.258182,67.3177469 143.350845,67.2166695 C143.463602,67.0999827 143.714745,66.8158758 143.714745,66.6433822 C143.650833,66.4902347 143.568212,66.3454119 143.468728,66.2121484 C143.350845,66.0498016 143.222711,65.892528 143.094577,65.7352545 L143.033073,65.6642278 L143.730121,64.5024331 L144.135023,65.1315272 L144.38104,65.4714409 C144.471094,65.6044831 144.581797,65.7226233 144.709062,65.8215013 C144.801568,65.8798662 144.9072,65.9147199 145.016583,65.9229681 L146.584939,65.9229681 C146.651569,65.9229681 146.707947,65.8215013 146.723324,65.7809146 C146.733691,65.6881864 146.733691,65.5946091 146.723324,65.5018809 L146.723324,65.4663676 C146.806839,65.3167597 146.914135,65.1814314 147.041095,65.0655738 C147.194855,64.8930802 147.358867,64.7256601 147.522878,64.5582399 L147.748393,64.3350129 L147.748393,64.64956 C147.727298,64.8983569 147.675664,65.1436839 147.594633,65.3801208 L147.533128,65.577981 C147.511948,65.6381534 147.484463,65.6959662 147.451123,65.7504745 L147.379368,65.9077481 Z M155.825941,63.827679 L155.825941,63.827679 C155.828754,63.869911 155.828754,63.9122805 155.825941,63.9545125 C155.804844,64.0670085 155.768646,64.1762073 155.718308,64.2792062 L155.641428,64.4516997 L155.600425,64.5480932 L155.554297,64.6241933 C155.477334,64.7575861 155.389936,64.8848084 155.292905,65.0046937 L155.22115,65.0858671 L155.410788,65.5678343 C155.472335,65.7014941 155.520405,65.8408409 155.554297,65.9838481 L155.554297,66.1563417 L155.554297,66.5825022 C155.563278,66.6277296 155.563278,66.6742549 155.554297,66.7194823 L155.497918,67.2268162 L152.581596,67.2268162 L153.058253,65.9280414 L153.150509,65.9280414 C153.224496,65.9261013 153.297481,65.9106205 153.365774,65.8823814 L153.555412,65.7961346 L153.719423,65.7048145 L153.883434,65.5881277 L154.047445,65.4562209 C154.110445,65.4075159 154.168778,65.3531707 154.221707,65.293874 C154.122717,65.1568872 154.014859,65.0263978 153.89881,64.9032269 C153.783422,64.7621938 153.642668,64.6435096 153.483657,64.5531665 L153.427278,64.6241933 C153.397163,64.6900931 153.35552,64.7502064 153.30427,64.8017601 L153.22739,64.8727869 L152.842988,64.6191199 L152.525217,64.4161864 C152.37556,64.3298709 152.217606,64.2584933 152.053685,64.2031061 C151.865599,64.1382278 151.707342,64.0085851 151.60778,63.8378257 C151.516148,63.7106483 151.459616,63.5620103 151.443769,63.4065919 C151.47379,63.2006272 151.525319,62.9983015 151.597529,62.8028645 L151.869172,62.1281104 L151.961429,62.1281104 C152.100879,62.14196 152.236475,62.1815378 152.361206,62.2447972 C152.453405,62.2802753 152.541125,62.326244 152.622599,62.3817774 L152.904493,62.5796376 C153.191512,62.7825712 153.463155,63.0057981 153.739924,63.244245 L154.108949,63.6044521 L154.49335,64.0306126 C154.630243,64.193044 154.758549,64.362382 154.877751,64.5379465 L154.908503,64.4719931 L154.975133,64.3197929 L155.052013,64.0052459 C155.06818,63.9011426 155.076744,63.7960212 155.07764,63.6906989 C155.085724,63.5696455 155.066465,63.4483297 155.021261,63.3355651 L154.811122,63.0514582 L155.708058,61.6867299 L155.708058,62.1230371 C155.708058,62.285384 155.877194,62.3969974 156.025829,62.4680242 L156.159088,62.5593443 L156.271846,62.6405177 L156.451233,62.7521311 L156.686999,62.929698 L156.138587,63.8834858 L156.061707,63.8834858 C155.99282,63.8852494 155.924441,63.8713652 155.861818,63.8428991 L155.825941,63.827679 Z M152.186944,61.0069025 L152.151067,60.9155824 C152.121044,60.8432613 152.044449,60.80114 151.966554,60.8141156 L151.858922,60.8141156 C151.819587,60.8223036 151.781624,60.8359684 151.746164,60.8547023 C151.710266,60.8735007 151.680163,60.9015457 151.659033,60.9358758 C151.688923,60.9527948 151.72213,60.9631747 151.756415,60.9663158 L152.063936,60.9967558 L152.186944,61.0069025 Z M151.551401,61.5649698 L151.443769,61.5243831 C151.341262,61.478723 151.192627,61.4127696 151.177251,61.2757895 C151.190974,61.0406244 151.28494,60.8170361 151.443769,60.6416221 C151.611504,60.406135 151.88068,60.2616543 152.171568,60.250975 C152.243,60.251577 152.313267,60.2689654 152.376582,60.3017084 C152.474619,60.3589297 152.534983,60.4630131 152.535468,60.5756687 L152.535468,60.5756687 L152.504716,60.6872821 C152.471951,60.7674584 152.430719,60.8439834 152.381707,60.9155824 L152.335579,60.9916825 L153.048002,60.9916825 L152.730231,61.5751165 L152.371456,61.6207765 C152.225605,61.6457984 152.08623,61.699258 151.961429,61.77805 C151.83842,61.8440035 151.710287,61.9201035 151.592404,61.9962036 L151.428393,62.1179638 L151.351512,62.016497 C151.233629,61.8642968 151.438643,61.6562899 151.551401,61.5446764 L151.551401,61.5649698 Z M158.5475,65.593201 C158.553071,65.9963214 158.490712,66.3975409 158.362988,66.7803624 C158.281304,67.0174309 158.161919,67.2400757 158.009339,67.4398965 L157.814576,67.7037101 L157.348169,63.4167386 C157.419101,63.203971 157.517282,63.0010766 157.640314,62.8130112 L158.260481,61.8287834 L158.347612,62.5491976 L158.424492,63.1529249 C158.496247,63.9240725 158.568002,64.7713201 158.568002,65.5830544 L158.5475,65.593201 Z M161.791845,62.7216911 L161.791845,62.7216911 L161.694464,62.8028645 C161.645823,62.8423746 161.599613,62.884728 161.556079,62.929698 L161.556079,63.0463848 L161.417695,63.0159448 C161.338037,62.9997242 161.260613,62.9741779 161.187054,62.9398447 L160.951288,62.8231579 L160.782152,62.7267645 C160.713089,62.6916746 160.64927,62.6472838 160.592514,62.5948576 L160.500258,62.5035375 L160.97179,61.9962036 L161.212681,61.7425367 L161.310063,61.8237101 C161.415284,61.9038827 161.524783,61.9783992 161.638085,62.046937 C161.714067,62.0953221 161.792784,62.1393631 161.873851,62.1788438 C161.904768,62.1616239 161.932499,62.139321 161.955856,62.1128904 L162.335132,61.76283 L163.319199,62.300604 L163.057806,62.6100777 L162.893795,62.7825712 C162.817726,62.87501 162.727852,62.9554178 162.627277,63.0210181 L162.576023,63.0210181 L162.483767,62.9804314 C162.368203,62.9360456 162.255266,62.8852312 162.145494,62.8282312 C162.058363,62.8383779 161.914854,62.7724245 161.812347,62.7115444 L161.791845,62.7216911 Z M168.526552,68.9974116 L168.393293,69.1394651 C168.325434,69.1955926 168.263603,69.2584964 168.20878,69.3271786 L168.152401,69.408352 L168.060145,69.377912 C167.89731,69.3217494 167.740964,69.2486211 167.593739,69.1597584 C167.506865,69.1152014 167.424485,69.062538 167.347722,69.0024849 L167.127332,68.824918 L167.609115,68.2364107 L167.901259,67.9370837 L167.993516,68.0740638 C168.089098,68.1625827 168.1939,68.2408119 168.306162,68.3074374 C168.388723,68.3611722 168.476246,68.4070375 168.567555,68.4444176 L168.64956,68.3733909 L169.039087,67.9776704 L170.033404,68.5864711 L169.961649,68.6980846 C169.857922,68.850167 169.744956,68.9958712 169.623376,69.1343917 C169.550318,69.2286757 169.46599,69.3138519 169.372234,69.3880587 L169.305605,69.4337187 L169.131343,69.3423986 L168.813571,69.1699051 L168.526552,68.9974116 Z M169.582373,65.9534081 C169.502146,65.7692218 169.411453,65.5896768 169.31073,65.4156342 L169.146719,65.1467472 C169.105065,65.0842703 169.058811,65.0249202 169.008335,64.9691803 L168.93658,64.8930802 L169.172346,64.5176531 L169.602875,63.797239 L169.725883,63.9392925 C169.855755,64.0987758 169.972313,64.2684459 170.074407,64.4466264 C170.214332,64.693419 170.32443,64.9556538 170.402429,65.2279206 L170.402429,65.3649008 L170.402429,65.5729077 L170.402429,65.6794478 L170.402429,65.9178947 C170.408368,65.9957134 170.396091,66.0738392 170.366552,66.146195 L170.305047,66.5875755 C170.293884,66.7733035 170.261209,66.9571482 170.207666,67.1354961 L170.171788,67.2115962 L163.836859,67.2115962 C163.472959,67.2115962 163.324324,66.8463158 163.232068,66.5317688 C163.232068,66.460742 163.206441,66.2983952 163.180814,66.1664884 C163.11931,66.2628818 163.047555,66.4100086 163.021929,66.4556687 C162.934798,66.6383089 162.775912,66.9071959 162.540146,66.9071959 C162.281755,66.8725638 162.026441,66.8182877 161.776469,66.744849 L161.233182,66.6281622 L161.079422,66.5977222 L160.82828,66.5977222 L160.82828,66.460742 C160.861535,66.1963296 160.928706,65.9371919 161.028168,65.6895945 C161.116005,65.413957 161.25893,65.1586129 161.448447,64.9387403 C161.604799,64.8025194 161.776831,64.6850215 161.960982,64.5886799 L162.734909,64.1168594 C162.734909,64.1168594 162.734909,64.066126 162.734909,64.0458326 L162.673405,63.8327524 L162.904046,63.482692 L163.052681,63.2188783 L163.390954,62.5897843 L163.554965,63.4065919 L163.63697,63.8631924 L163.826608,65.1873339 C163.846214,65.4101846 163.885662,65.6308864 163.944491,65.846868 L164.011121,65.9534081 C164.041648,65.958615 164.07285,65.958615 164.103377,65.9534081 L169.582373,65.9534081 Z M173.436635,65.9534081 L173.436635,65.8976014 L173.436635,65.6642278 C173.445382,65.4962122 173.494587,65.332702 173.580145,65.1873339 L173.682651,65.0351337 L173.749281,64.9387403 C173.915951,64.6928796 174.117967,64.472404 174.348947,64.2842796 C174.649216,63.9526712 175.053717,63.7310233 175.497024,63.6551855 C175.95169,63.6914126 176.366638,63.9255886 176.629726,64.2944262 C176.885568,64.5579382 177.049077,64.8958658 177.096133,65.2583607 C177.100373,65.3051513 177.087655,65.3519088 177.060255,65.3902675 L176.947498,65.5678343 L176.839866,65.3851941 C176.798489,65.3348054 176.750182,65.2904047 176.696356,65.2532873 L176.573347,65.1771872 L176.39396,65.0807938 C176.249796,65.0160176 176.098402,64.9683356 175.94293,64.9387403 C175.858188,64.9236003 175.772616,64.9134359 175.686662,64.9083003 C175.591057,64.9032459 175.495248,64.9032459 175.399643,64.9083003 C175.125418,64.9017254 174.852407,64.9464787 174.594963,65.0402071 C174.536615,65.0630441 174.480078,65.0901779 174.425827,65.1213805 C174.492456,65.2177739 174.625715,65.3699741 174.661593,65.4105608 L174.979364,65.7048145 C175.069321,65.7897881 175.167131,65.8662229 175.271509,65.9331148 L175.338139,65.9635548 L175.471398,65.9635548 L176.542595,65.9026747 L177.126885,65.9026747 L177.752177,65.8722347 L177.372902,66.5216221 L176.973125,67.2217429 L171.401872,67.2217429 L170.991844,62.6557377 L171.914407,61.5598965 L171.914407,61.9150302 C171.93322,62.6365191 171.99311,63.3563843 172.093794,64.0711993 L172.237303,65.3649008 C172.247031,65.5166563 172.267583,65.6675415 172.298808,65.816428 L172.298808,65.816428 L172.298808,65.8570147 L172.298808,65.9128214 C172.298808,65.9128214 172.33981,65.9128214 172.33981,65.9128214 L172.498696,65.9128214 L173.436635,65.9534081 Z M185.670839,65.9534081 C185.673032,65.9196207 185.673032,65.8857288 185.670839,65.8519413 C185.660759,65.5291743 185.619569,65.2080972 185.547831,64.8930802 L185.399196,64.2081795 L185.260812,63.4877653 L184.855909,63.1782916 L185.204433,62.5136842 L185.414572,62.1585505 L185.798973,61.6207765 L185.798973,62.1839172 L185.83485,62.2600173 C185.868649,62.3162671 185.908147,62.3689635 185.952733,62.4172908 L186.542148,62.7977912 L186.803541,62.944918 L187.141814,63.1123382 L186.34226,64.127006 L186.373012,64.6343399 L186.373012,64.7763934 L186.408889,64.9742537 L186.506271,65.7149612 L186.506271,65.816428 C186.495767,65.9974873 186.470051,66.1773667 186.429391,66.3542019 L186.362761,66.6687489 C186.362761,66.7347023 186.362761,66.7905091 186.332009,66.8513891 C186.323125,66.8999669 186.30939,66.9475515 186.291006,66.9934426 C186.291006,67.0847627 186.178249,67.1456428 186.075742,67.1811562 L185.957859,67.1811562 L185.829725,67.1811562 L183.267051,67.1811562 C183.138918,67.1811562 183.056912,67.0492494 183.005659,66.9477826 L183.005659,66.9477826 L183.005659,66.7803624 L182.693012,67.1963762 L180.6685,67.1963762 C180.61246,67.1949219 180.558447,67.1753182 180.51474,67.1405695 L180.44811,67.1050561 C180.322951,67.5489606 180.114286,67.9654983 179.833068,68.3328041 C179.530673,68.7538913 179.069392,69.2612252 178.500478,69.2612252 C178.075488,69.1959617 177.663717,69.0640933 177.280645,68.8705781 C177.085882,68.7843313 176.347832,68.4850043 176.347832,68.2161173 C176.354029,68.1260461 176.418214,68.0502147 176.506718,68.0284038 L176.547721,68.0284038 L177.126885,68.2465574 L177.337024,68.3175841 L177.516411,68.3175841 C177.693633,68.3196828 177.868978,68.2814984 178.028946,68.2059707 C178.269688,68.0815401 178.49943,67.9372871 178.715743,67.7747368 L178.869503,67.6479034 L179.054016,67.4855565 C179.160979,67.3974978 179.261994,67.3025919 179.356411,67.2014495 C179.464043,67.0847627 179.715186,66.8006557 179.715186,66.6281622 C179.651274,66.4750147 179.568653,66.3301919 179.469169,66.1969284 C179.351286,66.0345815 179.228277,65.877308 179.095018,65.7200345 L179.03864,65.6490078 L179.735687,64.4872131 L180.135464,65.1163072 L180.386606,65.4562209 C180.475288,65.5903311 180.586184,65.7086773 180.714628,65.8062813 C180.805258,65.864625 180.909234,65.8995136 181.017024,65.9077481 L182.877525,65.9077481 L182.405993,62.8637446 L182.88265,62.1788438 L183.021035,61.9962036 L183.436188,61.4888697 L183.436188,61.8947368 C183.453456,62.2617867 183.491099,62.6276192 183.548945,62.9905781 L183.712957,64.7459534 C183.710419,64.9290773 183.720694,65.1121553 183.743709,65.293874 L183.794962,65.7301812 C183.794962,65.8417947 183.794962,65.9483348 183.933347,65.9483348 L185.670839,65.9534081 Z M57.916427,55.4566695 C57.2296304,55.9640035 55.6407727,55.7965833 54.8975973,55.6240897 C53.359993,55.2588093 52.8474583,53.5288007 53.0780989,52.1539258 C53.0063441,51.139258 53.1396031,48.6685418 54.6157032,48.5417084 L57.4038922,48.5417084 C57.4414995,48.5089059 57.4697726,48.4669267 57.4858978,48.4199482 C57.4858978,47.3494737 57.429519,46.2434858 57.4858978,45.1730112 C57.4858978,44.6098706 58.7006052,44.959931 59.0235021,45.0563244 L59.1157583,45.0867645 L59.1157583,53.6810009 C59.1003823,54.3963417 58.7518586,55.3298361 57.916427,55.4566695 Z M49.2853418,52.5141329 C49.0495758,52.4583261 47.6093531,52.306126 47.5222222,52.5547196 C47.4504674,52.95044 47.9014979,54.2745815 48.3217764,54.4420017 C49.0146223,54.6264806 49.7532911,54.5277723 50.3719154,54.1680414 C50.9562051,53.8230544 50.8844502,53.4070406 51.1509683,52.95044 C51.4841159,52.3872994 52.0991576,53.3005004 52.0889069,53.9042278 C52.0889069,55.1979292 50.2847845,55.583503 49.2750911,55.6240897 C47.4965955,55.6951165 46.4048965,54.6094219 46.1998826,52.9149267 C46.1106591,51.7736189 46.2198751,50.6256184 46.5227795,49.5208628 C46.8303003,48.6736152 47.547849,48.4605349 48.3986566,48.3742882 C49.2494643,48.2880414 51.3867343,48.4554616 51.7403832,49.388956 C51.9412639,50.2383624 51.8548318,51.1295615 51.4943666,51.9256255 C51.1509683,52.3720794 49.8747567,52.6460397 49.3007178,52.5141329 L49.2853418,52.5141329 Z M42.3456212,53.9194478 C43.1228177,53.1355838 43.6149868,52.1184053 43.7448411,51.0276445 C43.8012199,50.4086972 43.847348,49.7948231 43.8832255,49.1708024 C43.8832255,49.0287489 43.8832255,48.5417084 44.0728633,48.5417084 C44.4777658,48.4503883 45.2260665,48.0901812 45.3029467,48.8664021 C45.3787565,50.1470658 45.2296202,51.4310423 44.8621669,52.6612597 C44.3855095,53.9600345 43.0170418,55.1979292 41.9048413,56.0401035 C41.0335323,56.4611907 40.9259,58.0694392 40.9976548,58.8456601 L40.9976548,58.9877135 L40.8541451,58.9877135 C40.2801062,58.9877135 39.8752037,58.2875928 39.731694,57.8208456 C39.4754266,56.9482312 39.4292985,56.1162036 40.2442287,55.5276963 C40.3774878,55.4313028 41.2692982,54.954409 41.177042,54.8174288 C40.7219658,54.3513842 40.3150444,53.8415206 39.9623346,53.2954271 C39.5728082,52.6105263 39.4497999,50.3123037 39.3985464,49.4599827 C39.3985464,49.074409 39.3985464,48.3489215 40.0135881,48.551855 C40.2043123,48.6010489 40.4007957,48.6249336 40.5978777,48.6228818 L40.7260114,48.6228818 L40.7260114,49.0642623 C40.7260114,50.1347368 40.9515267,52.2401726 41.6126965,53.1229336 C41.8365058,53.4109434 42.0870297,53.6776087 42.3609973,53.9194478 L42.3456212,53.9194478 Z M32.5254554,49.9216566 C33.1609985,48.6127351 34.790859,48.3032614 36.0875719,48.6634685 C36.9845077,48.7801553 37.8096887,49.388956 37.7738112,50.3528904 L37.7738112,55.7509232 L37.6456775,55.7509232 C36.589856,55.7509232 35.4417781,55.8067299 34.3962072,55.7509232 C34.0330695,55.7770653 33.6683901,55.7287045 33.3250096,55.6088697 C32.7539762,55.281541 32.3736314,54.7055184 32.2999401,54.056428 C31.9411658,52.3872994 33.2020012,51.9966523 34.452586,51.5907852 C35.0786164,51.3940964 35.6857869,51.1428269 36.2669591,50.839931 C36.369466,50.5659707 36.0311931,50.2108369 35.8108031,50.0941501 C35.2594891,49.8046249 34.5989977,49.8046249 34.0476836,50.0941501 C33.6069037,50.317377 33.1507478,50.9667645 32.8073495,51.0124245 C32.3306922,51.0682312 32.4588259,50.2260569 32.5254554,49.9216566 Z M26.0777682,54.5181018 C26.8004422,54.5485418 27.5231162,54.5789819 28.2457902,54.5992752 C29.0153672,54.6523728 29.787745,54.6523728 30.5573219,54.5992752 C30.9075606,54.5217402 31.2504902,54.4148135 31.5823914,54.2796549 L31.7669039,54.2035548 L31.7669039,55.6393097 L24.4991612,55.6393097 L24.4991612,55.5327696 C24.3336979,54.2176617 24.8434163,52.9077456 25.8573782,52.0423123 C27.07191,50.8581913 28.1797678,49.5714499 29.1683527,48.1967213 L29.8295226,47.1820535 C28.420052,47.1820535 27.0003307,47.1820535 25.5908602,47.1820535 C25.2525872,47.1820535 24.6324202,47.3038136 24.6426709,46.7812597 C24.6756353,46.4647622 24.9015923,46.2007983 25.2115845,46.1166523 L25.5037293,46.0862123 C27.0823363,46.0608456 28.6763194,46.0456255 30.2498011,46.0456255 C30.5624473,46.0456255 30.8648428,45.827472 31.192865,46.0456255 C31.7053998,46.410906 30.9468483,48.0749612 30.7777119,48.490975 C30.2908039,49.6832097 28.0971551,51.8647455 27.0823363,52.7525798 C26.6915745,53.308159 26.3551975,53.8993394 26.0777682,54.5181018 L26.0777682,54.5181018 Z M17.7337024,50.0079034 C17.8003319,50.9718378 18.0617247,54.9290423 17.7029503,55.4008628 C17.344176,55.8726833 16.7701371,55.6494564 16.3908614,55.4363762 L16.3293572,55.3957895 L16.3293572,48.6533218 L20.2707494,48.6533218 L20.3117522,48.7091286 C20.5913538,49.1048201 20.8026567,49.5437106 20.9370446,50.0079034 C20.9985488,50.4492839 20.4245099,50.7080242 20.0913623,50.6420708 C20.0581518,50.6348628 20.0267656,50.6210549 19.999106,50.601484 C19.865847,50.5000173 19.7684654,50.1448835 19.3174348,49.8303365 C18.8664042,49.5157895 18.1744823,49.718723 17.7337024,50.0079034 Z M12.75699,48.6634685 C13.6488005,48.7801553 14.4791067,49.388956 14.4432293,50.3528904 L14.4432293,55.7509232 L14.3099703,55.7509232 C13.2541487,55.7509232 12.1060708,55.8067299 11.0605,55.7509232 C10.6973758,55.7766284 10.332786,55.7282795 9.98930232,55.6088697 C9.41473646,55.2852457 9.03307829,54.7072341 8.96423282,54.056428 C8.60033314,52.3872994 9.86629398,51.9966523 11.1117534,51.5907852 C11.7390731,51.3931226 12.3478608,51.1418936 12.9312518,50.839931 C13.0337587,50.5659707 12.6903605,50.2108369 12.4699705,50.0941501 C11.9204695,49.8046306 11.2614773,49.8046306 10.7119763,50.0941501 C10.2711964,50.317377 9.8150405,50.9667645 9.46651687,51.0124245 C8.97960886,51.0682312 9.11286789,50.2260569 9.17437206,49.9216566 C9.83041655,48.6127351 11.4602771,48.3083348 12.75699,48.6634685 L12.75699,48.6634685 Z M7.22674001,48.7547886 L7.22674001,53.188887 C6.96029661,54.5029182 5.96920327,55.5565514 4.66406624,55.9132701 L4.50005512,55.9640035 L-2.97938757e-16,55.9640035 L-2.97938757e-16,46.1166523 L4.31041727,46.1166523 C5.29658276,46.1755737 6.2070516,46.6595676 6.80133616,47.4407938 C7.06632519,47.8299148 7.21388136,48.2856889 7.22674001,48.7547886 Z M1.0250695,65.8722347 L1.0250695,68.2465574 C1.03758658,68.3386229 0.998262395,68.430097 0.922562554,68.4850043 C0.863165923,68.5117997 0.798105136,68.5239836 0.732924696,68.5205177 L0.297270156,68.5205177 C0.234311219,68.522951 0.171516122,68.5125914 0.112757645,68.4900777 C0.0153760426,68.4494909 3.98119038e-15,68.3378775 3.98119038e-15,68.2465574 L3.98119038e-15,63.0362381 C-0.00453707833,62.9594906 0.0151668813,62.8832476 0.0563788227,62.8180846 C0.113156539,62.7607312 0.190528869,62.7279081 0.271643419,62.7267645 L3.01882969,62.7267645 C3.07129161,62.7295683 3.12307427,62.7398197 3.17259012,62.7572045 C3.25124084,62.7955433 3.29655916,62.8791432 3.28534776,62.9652114 L3.28534776,63.1427783 C3.28790499,63.1867108 3.28790499,63.2307526 3.28534776,63.2746851 C3.28200919,63.3172883 3.26979354,63.3587456 3.24947033,63.3964452 C3.19379072,63.470462 3.09996323,63.5060313 3.008579,63.4877653 L1.0250695,63.4877653 L1.0250695,65.1112338 L2.67543141,65.1112338 C2.73962643,65.1065495 2.80379505,65.1206645 2.85994392,65.1518205 C2.93117239,65.2030267 2.96850984,65.288615 2.95732552,65.3750475 L2.95732552,65.5424676 C2.96222676,65.5896945 2.96222676,65.6372942 2.95732552,65.6845211 C2.94738703,65.7572577 2.90116246,65.8201715 2.83431718,65.8519413 C2.78503535,65.8590902 2.73496393,65.8590902 2.6856821,65.8519413 L1.0250695,65.8722347 Z M8.71309079,65.4460742 C8.73633453,65.8511295 8.6842163,66.2569659 8.55933036,66.6433822 C8.44285274,66.9969037 8.26029766,67.3256104 8.02116887,67.61239 C7.78864657,67.8919762 7.50086761,68.1215896 7.17548653,68.2871441 C6.83177908,68.444168 6.45719613,68.5238688 6.07866216,68.5205177 C5.71217133,68.5239616 5.34901566,68.4513762 5.01258988,68.3074374 C4.69320918,68.1679337 4.40556895,67.9660403 4.16690754,67.7138568 C3.9159755,67.4474925 3.71932599,67.1357015 3.58774327,66.7955824 C3.44771032,66.4223576 3.37821644,66.0268226 3.38272936,65.6287144 C3.38618634,65.2846938 3.43969798,64.9429607 3.54161514,64.6140466 C3.64153457,64.2756841 3.80498123,63.9589924 4.0233978,63.6805522 C4.25083153,63.3979553 4.53764851,63.167714 4.8639548,63.0057981 C5.23744538,62.8269115 5.64846604,62.7382391 6.06328612,62.7470578 C6.80663887,62.7273548 7.51832678,63.0450186 7.99554213,63.6095255 C8.22111256,63.8691423 8.39501657,64.1686648 8.50807689,64.4922865 C8.62328192,64.7985482 8.69235893,65.1199157 8.71309079,65.4460742 Z M11.5730347,65.846868 L13.0798869,68.0892839 L13.126015,68.165384 C13.1464831,68.2063896 13.1570124,68.2515536 13.1567671,68.2972908 C13.16334,68.391166 13.0967803,68.4746194 13.0030067,68.4900777 C12.9690423,68.4953122 12.9344641,68.4953122 12.9004997,68.4900777 L12.2085778,68.4900777 C12.174626,68.4888251 12.141373,68.4801631 12.1111962,68.464711 C12.0752984,68.4459126 12.0451952,68.4178676 12.0240653,68.3835375 L11.9728118,68.3125108 L10.6504722,66.2172217 C10.6100351,66.157034 10.5636812,66.1009541 10.5120878,66.0498016 C10.4689751,66.0068461 10.409093,65.9846182 10.3480766,65.9889215 C10.3265577,65.9811665 10.3029661,65.9811665 10.2814471,65.9889215 C10.2786049,66.0108159 10.2786049,66.0329804 10.2814471,66.0548749 C10.2789061,66.0767874 10.2789061,66.0989158 10.2814471,66.1208283 L10.2814471,68.1856773 C10.2885691,68.2665818 10.2627356,68.346949 10.2096923,68.4089042 C10.1515943,68.4582125 10.0757398,68.4820198 9.99955302,68.4748576 L9.53827174,68.4748576 C9.47471664,68.4787545 9.41120832,68.466531 9.35375923,68.4393443 C9.28695211,68.3850909 9.25226632,68.3011638 9.26150297,68.2161173 L9.26150297,63.1427783 C9.25796766,63.0650717 9.27016595,62.9874498 9.2973804,62.914478 C9.34107278,62.8544775 9.40169642,62.8085887 9.47164222,62.7825712 C9.54832632,62.7579245 9.62730779,62.7409288 9.70740821,62.7318378 L10.0251798,62.6963244 L10.3993301,62.6963244 L10.7427284,62.6963244 L11.1117534,62.6963244 C11.2527952,62.7012221 11.3932746,62.7164841 11.5320319,62.7419845 C11.676605,62.7723992 11.8187748,62.8130914 11.9574358,62.8637446 C12.0995908,62.9224411 12.232497,63.001034 12.3520875,63.0971182 C12.3937789,63.1299424 12.4331643,63.1655381 12.4699705,63.2036583 C12.5381026,63.2729654 12.5982655,63.3495328 12.6493577,63.4319586 C12.7147837,63.5444791 12.7680401,63.6635152 12.8082435,63.7870923 C12.8609483,63.9509759 12.8852102,64.1225166 12.8799983,64.2944262 C12.8852109,64.6703085 12.7438641,65.0337176 12.4853466,65.309094 C12.232394,65.5742486 11.9119296,65.7670297 11.5576587,65.8671613 L11.5730347,65.846868 Z M16.5599978,65.846868 L16.5599978,68.2211907 C16.5725149,68.3132562 16.5331907,68.4047303 16.4574909,68.4596376 C16.4000418,68.4868244 16.3365335,68.4990479 16.2729784,68.495151 L15.8219478,68.495151 C15.7593253,68.4996483 15.6964493,68.4910042 15.6374353,68.4697843 C15.5400537,68.4291976 15.5246776,68.3175841 15.5246776,68.226264 L15.5246776,63.0362381 C15.5201406,62.9594906 15.5398445,62.8832476 15.5810565,62.8180846 C15.6375065,62.7602591 15.7150871,62.7273477 15.7963211,62.7267645 L18.5435073,62.7267645 C18.594366,62.7290736 18.6445335,62.7393478 18.6921424,62.7572045 C18.7739822,62.7926725 18.8221073,62.8775903 18.8100254,62.9652114 L18.8100254,63.1427783 C18.8125826,63.1867108 18.8125826,63.2307526 18.8100254,63.2746851 C18.8073606,63.3181247 18.7932217,63.3601108 18.7690226,63.3964452 C18.7158442,63.4706761 18.6232084,63.5065571 18.5332566,63.4877653 L16.5446218,63.4877653 L16.5446218,65.1112338 L18.1796077,65.1112338 C18.2454475,65.1064376 18.3112884,65.1205291 18.3692455,65.1518205 C18.4368458,65.2054908 18.4717171,65.2898666 18.4615018,65.3750475 L18.4615018,65.5424676 C18.466403,65.5896945 18.466403,65.6372942 18.4615018,65.6845211 C18.455616,65.7588022 18.4080718,65.8235121 18.3384934,65.8519413 C18.2892893,65.8600778 18.2390624,65.8600778 18.1898584,65.8519413 L16.5599978,65.846868 Z M21.8134791,66.3186885 L20.2758748,66.3186885 L19.5378248,68.2922174 C19.5157344,68.3608765 19.4727771,68.4211151 19.4148164,68.464711 C19.3622523,68.4897998 19.3038018,68.5003193 19.2456799,68.495151 L18.8715296,68.495151 C18.8358297,68.5001475 18.7995972,68.5001475 18.7638973,68.495151 C18.6715926,68.4820245 18.6060863,68.3992956 18.6152622,68.3074374 C18.6105328,68.2720783 18.6105328,68.2362564 18.6152622,68.2008973 L18.6152622,68.1755306 L18.6152622,68.1755306 L20.6654012,62.929698 C20.6859481,62.8684556 20.7231971,62.8140269 20.7730335,62.7724245 C20.8211843,62.7398516 20.8787998,62.7238116 20.9370446,62.7267645 L21.3060696,62.7267645 C21.3472431,62.7311948 21.3863223,62.7470195 21.4188273,62.7724245 C21.4592062,62.8089693 21.4907403,62.8540564 21.5110835,62.9043313 L23.5612226,68.1450906 C23.5720544,68.1696447 23.5806313,68.1951142 23.5868493,68.2211907 C23.5914066,68.2531635 23.5914066,68.2856113 23.5868493,68.3175841 C23.5952469,68.4025013 23.5414413,68.4813255 23.4587156,68.5052977 C23.4213004,68.5103112 23.3833732,68.5103112 23.345958,68.5052977 L22.8693006,68.5052977 C22.8028595,68.5105824 22.7361013,68.5001485 22.6745374,68.4748576 C22.6186912,68.4313764 22.5761125,68.3734246 22.5515291,68.3074374 L21.8134791,66.3186885 Z M28.4098013,64.6292666 L26.9080745,68.241484 C26.8838664,68.3063369 26.8511235,68.3677464 26.8106929,68.4241242 C26.7631036,68.4740532 26.6953443,68.5001367 26.6261804,68.495151 C26.5489666,68.5001173 26.4736197,68.4702844 26.4211665,68.4139776 C26.3843508,68.358073 26.3534363,68.2985715 26.3289102,68.2364107 L24.791306,64.6241933 L24.791306,68.226264 C24.8054341,68.3171097 24.7655532,68.407905 24.688799,68.4596376 C24.6366433,68.4862349 24.5782354,68.4984987 24.5196625,68.495151 L24.0891334,68.495151 C24.0217422,68.4833594 23.9643732,68.4398228 23.9353729,68.3784642 C23.9276412,68.3280194 23.9276412,68.2767088 23.9353729,68.226264 L23.9353729,63.0057981 C23.9297073,62.9329408 23.9516311,62.8606033 23.9968771,62.8028645 C24.0518598,62.7476031 24.1289874,62.719672 24.2070163,62.7267645 L24.7195511,62.7267645 C24.7899258,62.7223085 24.8599139,62.740072 24.9194397,62.7774978 C24.972093,62.8258858 25.0109771,62.8871193 25.0321973,62.9550647 L26.6671832,66.7194823 L28.2304142,62.9601381 C28.2551052,62.8949727 28.2915775,62.8348024 28.3380464,62.7825712 C28.4010403,62.7397095 28.4771789,62.7199708 28.553311,62.7267645 L29.1119739,62.7267645 C29.1696353,62.7169182 29.2285743,62.7169182 29.2862357,62.7267645 C29.368762,62.7766424 29.4131608,62.8705318 29.3989934,62.9652114 L29.3989934,68.2465574 C29.4001157,68.3198589 29.3725694,68.3907526 29.3221132,68.4444176 C29.2597169,68.4839929 29.1857712,68.5018455 29.1119739,68.495151 L28.6660687,68.495151 C28.5906471,68.5031405 28.515097,68.4812526 28.4559294,68.4342709 C28.4081592,68.3738917 28.3860911,68.2974371 28.3944253,68.2211907 L28.4098013,64.6292666 Z M31.2389931,62.9702847 L31.2389931,68.2364107 C31.2494251,68.328558 31.212932,68.4198156 31.1416115,68.479931 C31.0836545,68.5112225 31.0178135,68.5253139 30.9519737,68.5205177 L30.4804417,68.5205177 C30.418143,68.5221998 30.3564286,68.5082368 30.3010545,68.479931 C30.2270515,68.4214589 30.1883832,68.3295967 30.1985476,68.2364107 L30.1985476,63.0108714 C30.1950791,62.93434 30.2186374,62.8590009 30.2651771,62.7977912 C30.3225513,62.7399696 30.4047991,62.7134629 30.4855671,62.7267645 L30.9519737,62.7267645 C31.0182893,62.723797 31.0840819,62.7396382 31.1416115,62.7724245 C31.2046268,62.8287857 31.2353395,62.9123887 31.2236171,62.9956514 L31.2389931,62.9702847 Z M33.0584915,67.7189301 L35.0112489,67.7189301 C35.0926746,67.7128175 35.1723077,67.7447229 35.2265135,67.8051769 C35.2642261,67.8603585 35.2822628,67.9264169 35.277767,67.9928904 L35.277767,68.3328041 C35.2621101,68.4077125 35.2042341,68.4669767 35.1291319,68.4850043 C35.089989,68.4898325 35.0503919,68.4898325 35.0112489,68.4850043 L32.2896894,68.4850043 C32.2064974,68.4955728 32.124067,68.460604 32.0744248,68.3936842 C32.0420962,68.3438678 32.025995,68.2854292 32.0282967,68.226264 L32.0282967,62.9956514 C32.01906,62.910605 32.0537458,62.8266778 32.1205529,62.7724245 C32.1729468,62.7453124 32.2306443,62.7297364 32.2896894,62.7267645 L32.8022241,62.7267645 C32.8792155,62.7203689 32.9554029,62.7461201 33.0123634,62.7977912 C33.0525478,62.8560987 33.0739868,62.9250686 33.0738676,62.9956514 L33.0584915,67.7189301 Z M37.9275717,65.9534081 L37.9275717,68.2871441 C37.9392332,68.3799621 37.892519,68.4704321 37.8096887,68.5154443 C37.754229,68.5366186 37.694697,68.5452845 37.6354269,68.540811 L37.1228921,68.540811 C37.0472099,68.5491247 36.9718042,68.5230005 36.9178782,68.4697843 C36.8787327,68.4169806 36.8588553,68.3525873 36.8614994,68.2871441 L36.8614994,65.9178947 L35.2111375,63.1529249 C35.1903517,63.1184803 35.1715293,63.0829113 35.1547587,63.0463848 C35.1498724,63.0161369 35.1498724,62.9853126 35.1547587,62.9550647 C35.1501614,62.8768592 35.1951116,62.8040508 35.2675163,62.7724245 C35.3115972,62.7647451 35.3566944,62.7647451 35.4007753,62.7724245 L35.9748143,62.7724245 C36.0344584,62.7697293 36.0939666,62.7801242 36.1490761,62.8028645 C36.2059541,62.837815 36.2506668,62.8891554 36.2772098,62.9499914 L37.5226692,65.0605004 L38.7271259,62.9094047 C38.7540748,62.8588603 38.7886397,62.8126712 38.8296328,62.7724245 C38.8775722,62.7428334 38.9321469,62.7254073 38.9885186,62.7216911 L39.4344238,62.7216911 C39.5132258,62.7176222 39.5879609,62.7565573 39.629187,62.8231579 C39.6464024,62.8563293 39.6568518,62.892531 39.6599391,62.929698 C39.6648621,62.9616444 39.6648621,62.9941451 39.6599391,63.0260915 C39.6459766,63.0613726 39.6288224,63.0953329 39.6086856,63.1275582 L37.9275717,65.9534081 Z M45.3747016,64.2031061 C45.3285735,64.127006 45.27732,64.0559793 45.2311919,63.9849525 C45.1002688,63.8015837 44.9237236,63.6547906 44.7186571,63.5587921 C44.5833602,63.5057419 44.4387506,63.4798728 44.2932533,63.482692 C43.8790032,63.4786707 43.4866066,63.6663108 43.2323063,63.9900259 C43.0857133,64.1737062 42.9729421,64.3815039 42.8991588,64.6038999 C42.8026401,64.8746539 42.7507242,65.1590068 42.7453983,65.4460742 C42.7429541,65.7570546 42.7878784,66.0666234 42.8786574,66.3643486 C42.9566591,66.6261493 43.0816632,66.8719021 43.2476824,67.0898361 C43.4009461,67.2823708 43.5929276,67.4413078 43.8114706,67.5565833 C44.0349367,67.6699654 44.2830561,67.7274466 44.5341446,67.7240035 C44.7086066,67.7232125 44.881754,67.6940761 45.0466794,67.6377567 C45.2277481,67.575169 45.3999895,67.4899222 45.5592141,67.3840897 L45.7129745,67.2876963 C45.7691703,67.2556487 45.832644,67.238196 45.8974871,67.2369629 C45.9775836,67.2358673 46.0542311,67.2691759 46.1076263,67.328283 C46.1699937,67.3877906 46.2035848,67.470916 46.1998826,67.5565833 C46.1868039,67.6817849 46.1328194,67.7993455 46.0461221,67.8914236 C45.9378575,68.0146343 45.8096923,68.119212 45.6668464,68.2008973 C45.4864175,68.3017078 45.2957178,68.3833357 45.0979328,68.4444176 C44.8588307,68.5164171 44.6097574,68.5506596 44.3598828,68.5458844 C43.9506152,68.5540942 43.5445725,68.4726702 43.1708022,68.3074374 C42.841648,68.1544853 42.5510171,67.9309253 42.3199945,67.6529767 C42.091761,67.3724477 41.9179859,67.052506 41.8074597,66.7093356 C41.696824,66.3544332 41.6415177,65.9849042 41.6434486,65.6134944 C41.6414857,65.2701835 41.6898253,64.9284049 41.7869583,64.5988266 C41.8786806,64.2658615 42.03539,63.9538994 42.2482396,63.6805522 C42.4738445,63.3981861 42.7589457,63.1679181 43.0836713,63.0057981 C43.4658712,62.8200003 43.8881395,62.7294372 44.3137547,62.7419845 C44.5937619,62.7365552 44.8727019,62.7777143 45.1389356,62.8637446 C45.3563418,62.9324685 45.5619791,63.0333886 45.748852,63.1630716 C45.9008927,63.2695989 46.0327556,63.4018412 46.1383784,63.5537187 C46.225978,63.6756707 46.2758409,63.820216 46.2818881,63.9697325 C46.287073,64.1064197 46.2307581,64.2383459 46.1281277,64.3299396 C46.0341297,64.4145109 45.9117539,64.4615182 45.7847294,64.4618464 C45.7108112,64.459348 45.6379269,64.4438885 45.5694648,64.4161864 C45.474407,64.3615508 45.3977442,64.2803716 45.3490749,64.1828128 L45.3747016,64.2031061 Z M49.377598,66.3643486 L47.8399938,66.3643486 L47.1019437,68.3378775 C47.0798533,68.4065366 47.0368961,68.4667752 46.9789354,68.510371 C46.9263712,68.5354599 46.8679208,68.5459794 46.8097989,68.540811 L46.4356485,68.540811 C46.3999487,68.5458075 46.3637161,68.5458075 46.3280162,68.540811 C46.2357116,68.5276846 46.1702053,68.4449556 46.1793812,68.3530975 C46.1746518,68.3177384 46.1746518,68.2819165 46.1793812,68.2465574 L46.1793812,68.2211907 L46.1793812,68.2211907 L48.2295202,62.9753581 C48.246155,62.9135785 48.2820199,62.8585521 48.3320271,62.8180846 C48.3820701,62.7854568 48.441315,62.7694631 48.5011636,62.7724245 L48.8650633,62.7724245 C48.9075967,62.7776474 48.9481275,62.7933464 48.9829463,62.8180846 C49.0200223,62.856309 49.0495711,62.9010427 49.0700772,62.9499914 L51.1202162,68.1907506 L51.1509683,68.2668507 C51.1532219,68.2989432 51.1532219,68.3311517 51.1509683,68.3632442 C51.1593659,68.4481613 51.1055603,68.5269856 51.0228346,68.5509577 C50.9854193,68.5559712 50.9474922,68.5559712 50.9100769,68.5509577 L50.4231689,68.5509577 C50.3541782,68.5468255 50.2872818,68.5259147 50.2284057,68.4900777 C50.1725595,68.4465964 50.1299807,68.3886447 50.1053974,68.3226575 L49.377598,66.3643486 Z M53.8212743,65.8874547 L55.3281265,68.1298706 C55.3471757,68.1528705 55.3627169,68.1785096 55.3742546,68.2059707 C55.3947227,68.2469763 55.405252,68.2921403 55.4050067,68.3378775 C55.4119315,68.4301252 55.3480889,68.5129322 55.2563716,68.5306644 C55.2206717,68.5356608 55.1844392,68.5356608 55.1487393,68.5306644 L54.4721935,68.5306644 C54.4211345,68.5332538 54.3706536,68.5189771 54.3286837,68.4900777 C54.292786,68.4712793 54.2626827,68.4432343 54.2415528,68.4089042 L54.1902993,68.3378775 L52.8679597,66.2425884 C52.8291126,66.1812541 52.7826189,66.1250051 52.7295753,66.0751682 C52.6864627,66.0322128 52.6265806,66.0099849 52.5655642,66.0142882 C52.5439134,66.0073122 52.5205854,66.0073122 52.4989347,66.0142882 C52.4960924,66.0361826 52.4960924,66.0583471 52.4989347,66.0802416 C52.4963937,66.1021541 52.4963937,66.1242825 52.4989347,66.146195 L52.4989347,68.211044 C52.5060566,68.2919485 52.4802231,68.3723157 52.4271798,68.4342709 C52.3693826,68.4841116 52.2932915,68.5079932 52.2170406,68.5002243 L51.76601,68.5002243 C51.7007612,68.5047712 51.6354334,68.4925373 51.5763721,68.464711 C51.509565,68.4104576 51.4748792,68.3265305 51.4841159,68.241484 L51.4841159,63.168145 C51.4797953,63.0899321 51.4938295,63.0117912 51.5251186,62.9398447 C51.5657527,62.8790637 51.6250476,62.8328206 51.6942551,62.8079379 C51.7709392,62.7832912 51.8499207,62.7662955 51.9300211,62.7572045 L52.252918,62.7216911 L52.621943,62.7216911 L52.9653413,62.7216911 L53.3394917,62.7216911 C53.4788154,62.7268741 53.6175698,62.7421348 53.7546448,62.7673512 C53.8993683,62.7971689 54.0415823,62.8378738 54.1800487,62.8891113 C54.3222037,62.9478078 54.4551099,63.0264007 54.5747004,63.1224849 C54.6163918,63.1553091 54.6557772,63.1909048 54.6925834,63.229025 C54.7622171,63.2970245 54.8225284,63.3737807 54.8719706,63.4573253 C54.9395061,63.5687743 54.9928723,63.6880557 55.0308563,63.812459 C55.0835612,63.9763426 55.1078231,64.1478833 55.1026112,64.3197929 C55.1099781,64.6960532 54.9683312,65.0602338 54.7079594,65.3344607 C54.4619767,65.5850632 54.1547921,65.7685522 53.816149,65.8671613 L53.8212743,65.8874547 Z M56.8298533,65.8874547 L56.8298533,67.7798102 L58.8389896,67.7798102 C58.8964662,67.7778716 58.9538093,67.7864718 59.008126,67.8051769 C59.0889807,67.8516246 59.1335133,67.9417898 59.1208837,68.0334771 L59.1208837,68.2820708 C59.1313486,68.3720302 59.0871103,68.459609 59.008126,68.5052977 C58.9547916,68.527953 58.896967,68.5383599 58.8389896,68.5357377 L56.0815526,68.5357377 C56.0067954,68.5422312 55.9317931,68.5263223 55.866288,68.4900777 C55.7895338,68.4383451 55.7496529,68.3475498 55.763781,68.2567041 L55.763781,63.0463848 C55.7588255,62.9708675 55.7747739,62.8954426 55.8099092,62.8282312 C55.8667358,62.7550129 55.9580979,62.7165299 56.0508005,62.7267645 L58.8082375,62.7267645 C58.8572548,62.7166421 58.9078552,62.7166421 58.9568725,62.7267645 C59.0459924,62.7641366 59.10005,62.8546904 59.0901316,62.9499914 L59.0901316,63.1275582 C59.0952195,63.1747755 59.0952195,63.2223945 59.0901316,63.2696117 C59.0643562,63.394243 58.9460085,63.478235 58.8184882,63.4623986 L56.8093519,63.4623986 L56.8093519,65.0858671 L58.4853406,65.0858671 C58.5361236,65.0761458 58.588318,65.0761458 58.639101,65.0858671 C58.7273891,65.1235938 58.7796893,65.214708 58.7672347,65.309094 L58.7672347,65.5018809 C58.7755344,65.5556847 58.7755344,65.610424 58.7672347,65.6642278 C58.7485363,65.725549 58.7035568,65.7756375 58.6442263,65.8012079 C58.5966827,65.8086188 58.5482603,65.8086188 58.5007166,65.8012079 L56.8298533,65.8874547 Z M180.196968,47.3748404 C180.130339,47.7705608 180.196968,48.3184814 180.709503,48.3590682 L184.451007,48.3590682 C186.013481,48.5633143 187.204554,49.8448217 187.280198,51.4030716 C187.392956,52.5192062 187.141814,54.2035548 185.819474,54.5130285 L185.74772,54.5130285 L185.696466,54.4622951 C185.492591,54.257866 185.257336,54.0866396 184.999419,53.9549612 C184.640644,53.7773943 180.453236,53.8433477 179.699809,53.8585677 L179.56655,53.8585677 L179.56655,52.5394996 L185.38382,52.5394996 L185.38382,52.666333 C185.38382,52.7728732 185.470951,52.7677998 185.563207,52.7576531 C185.860477,52.7170664 186.075742,52.1640725 186.075742,51.8951855 C185.957859,51.1798447 185.429948,49.6324763 184.538138,49.6324763 C183.328556,49.6324763 182.113848,49.6781363 180.904266,49.6781363 C179.41279,49.6781363 179.535798,48.2423814 180.00733,47.2429336 L180.422483,46.3652459 L180.196968,47.3748404 Z" id="Shape" fill="#231F20"></path>
                </g>
            </g>
        </g>
    </g>
</svg>